<?xml version="1.0" encoding="UTF-8" standalone="no"?>
<svg
   xmlns:dc="http://purl.org/dc/elements/1.1/"
   xmlns:cc="http://creativecommons.org/ns#"
   xmlns:rdf="http://www.w3.org/1999/02/22-rdf-syntax-ns#"
   xmlns:svg="http://www.w3.org/2000/svg"
   xmlns="http://www.w3.org/2000/svg"
   xmlns:sodipodi="http://sodipodi.sourceforge.net/DTD/sodipodi-0.dtd"
   xmlns:inkscape="http://www.inkscape.org/namespaces/inkscape"
   version="1.1"
   x="0px"
   y="0px"
   viewBox="0 0 48 48"
   enable-background="new 0 0 90 90"
   xml:space="preserve"
   id="svg6"
   sodipodi:docname="logo-tmp.svg"
   width="48"
   height="48"
   style="fill:#000000"
   inkscape:version="0.92.1 unknown"><metadata
     id="metadata12"><rdf:RDF><cc:Work
         rdf:about=""><dc:format>image/svg+xml</dc:format><dc:type
           rdf:resource="http://purl.org/dc/dcmitype/StillImage" /><dc:title></dc:title></cc:Work></rdf:RDF></metadata><defs
     id="defs10" /><sodipodi:namedview
     pagecolor="#ffffff"
     bordercolor="#666666"
     borderopacity="1"
     objecttolerance="10"
     gridtolerance="10"
     guidetolerance="10"
     inkscape:pageopacity="0"
     inkscape:pageshadow="2"
     inkscape:window-width="2560"
     inkscape:window-height="1297"
     id="namedview8"
     showgrid="false"
     fit-margin-top="0"
     fit-margin-left="0"
     fit-margin-right="0"
     fit-margin-bottom="0"
     inkscape:zoom="10.488889"
     inkscape:cx="34.576563"
     inkscape:cy="24.993757"
     inkscape:window-x="0"
     inkscape:window-y="110"
     inkscape:window-maximized="1"
     inkscape:current-layer="svg6" /><path
     d="M 46,18 H 2 c -1.1,0 -2,0.9 -2,2 v 8 c 0,1.1 0.9,2 2,2 H 2.4 L 6,46.4 C 6.2,47.3 7,48 8,48 h 32 c 0.9,0 1.7,-0.7 2,-1.6 L 45.6,30 H 46 c 1.1,0 2,-0.9 2,-2 v -8 c 0,-1.1 -0.9,-2 -2,-2 z M 4,22 h 40 v 4 H 4 Z M 38.4,44 H 9.6 L 6.5,30 h 35 z"
     id="path2"
     inkscape:connector-curvature="0"
     style="fill:#40efa5;fill-opacity:1" /><path
     d="m 12,16 c 1.1,0 2,-0.9 2,-2 0,-5.5 4.5,-10 10,-10 5.5,0 10,4.5 10,10 0,1.1 0.9,2 2,2 1.1,0 2,-0.9 2,-2 C 38,6.3 31.7,0 24,0 16.3,0 10,6.3 10,14 c 0,1.1 0.9,2 2,2 z"
     id="path4"
     inkscape:connector-curvature="0"
     style="fill:#40efa5;fill-opacity:1" /></svg>